<svg xmlns="http://www.w3.org/2000/svg" version="1.1" xmlns:xlink="http://www.w3.org/1999/xlink" xmlns:svgjs="http://svgjs.dev/svgjs" width="309" height="309"><svg width="309" height="309" viewBox="0 0 309 309" fill="none" xmlns="http://www.w3.org/2000/svg">
<g clip-path="url(#clip0_769_36040)">
<path d="M70.6494 143.697C69.9726 144.977 68.0924 144.299 68.318 142.87L98.1756 7.05413C98.5516 5.24827 100.883 4.57108 102.086 6.07596L125.852 34.2925C126.905 35.5716 127.131 37.3022 126.379 38.8071L70.6494 143.697ZM49.5912 173.494C49.1399 175.601 46.0564 175.225 46.0564 173.118V46.7078C46.0564 45.0524 48.0118 44.2247 49.2151 45.2781L70.4238 64.3149C71.4015 65.2178 71.8528 66.5722 71.6271 67.9266L49.5912 173.494ZM256.639 218.189H213.695C211.74 218.189 209.935 219.242 208.957 220.898L186.094 257.692C185.116 259.347 183.311 260.401 181.356 260.401H131.794C129.838 260.401 128.033 259.347 127.055 257.692L102.312 214.803C101.334 213.148 101.334 211.041 102.312 209.31L127.055 166.421C128.033 164.766 129.838 163.712 131.794 163.712H181.356C183.311 163.712 185.116 164.766 186.094 166.421L208.807 201.786C209.784 203.441 211.589 204.495 213.545 204.495H256.489C260.7 204.495 263.332 199.98 261.227 196.293L213.846 118.265C212.868 116.609 211.063 115.556 209.107 115.556L156.687 115.782L196.322 47.6107C197.3 45.9553 197.3 43.8485 196.322 42.1179L173.008 1.63656C171.729 -0.545519 168.57 -0.545519 167.367 1.63656L46.7333 209.385C45.7556 211.041 45.7556 213.148 46.7333 214.878L99.3037 305.999C100.281 307.654 102.086 308.708 104.042 308.708H209.183C211.138 308.708 212.943 307.654 213.921 305.999L261.377 226.391C263.483 222.704 260.851 218.189 256.639 218.189Z" fill="#FF4D89"></path>
</g>
<defs>
<clipPath id="SvgjsClipPath1013">
<rect width="308.71" height="308.708" fill="white"></rect>
</clipPath>
</defs>
</svg><style>@media (prefers-color-scheme: light) { :root { filter: none; } }
@media (prefers-color-scheme: dark) { :root { filter: none; } }
</style></svg>